# xmcd
#
# Track frame offsets:
#	150
#	24088
#	48243
#	65480
#	83967
#	101793
#	116208
#	131993
#	151352
#	166026
#	183958
#	202023
#
# Disc length: 2868 seconds
#
# Revision: 0
# Processed by: cddbd v1.5.2PL0 Copyright (c) Steve Scherf et al.
# Submitted via: EZCDAudioConverter 1.3.4.1
#
DISCID=a00b320c
DTITLE=Erkin Koray - Arap Saçi 2/2
DYEAR=1900
DGENRE=
TTITLE0=Sevince
TTITLE1=Estarabim
TTITLE2=Arap Saçi
TTITLE3=Komsu Kizi
TTITLE4=Timbilli
TTITLE5=Neden Böyle (Ask Oyunu)
TTITLE6=Ilahi Morluk
TTITLE7=Senden Ayri
TTITLE8=Züleyha
TTITLE9=Hop Hop Gelsin
TTITLE10=Yine Yalnizim
TTITLE11=Köprüden Getçti Gelin
EXTD=
EXTT0=
EXTT1=
EXTT2=
EXTT3=
EXTT4=
EXTT5=
EXTT6=
EXTT7=
EXTT8=
EXTT9=
EXTT10=
EXTT11=
PLAYORDER=
